<?xml version="1.0" encoding="UTF-8" standalone="no"?>
<!-- Uploaded to: SVG Repo, www.svgrepo.com, Generator: SVG Repo Mixer Tools -->

<svg
   fill="#000000"
   width="100"
   height="100"
   viewBox="0 0 4 4"
   version="1.1"
   id="svg1"
   sodipodi:docname="mariaOS100x100.svg"
   xml:space="preserve"
   inkscape:export-filename="mariaOS100x100.png"
   inkscape:export-xdpi="12"
   inkscape:export-ydpi="12"
   inkscape:version="1.4 (e7c3feb100, 2024-10-09)"
   xmlns:inkscape="http://www.inkscape.org/namespaces/inkscape"
   xmlns:sodipodi="http://sodipodi.sourceforge.net/DTD/sodipodi-0.dtd"
   xmlns="http://www.w3.org/2000/svg"
   xmlns:svg="http://www.w3.org/2000/svg"
   xmlns:rdf="http://www.w3.org/1999/02/22-rdf-syntax-ns#"
   xmlns:cc="http://creativecommons.org/ns#"
   xmlns:dc="http://purl.org/dc/elements/1.1/"><defs
     id="defs1" /><sodipodi:namedview
     id="namedview1"
     pagecolor="#ffffff"
     bordercolor="#000000"
     borderopacity="0.25"
     inkscape:showpageshadow="2"
     inkscape:pageopacity="0.0"
     inkscape:pagecheckerboard="0"
     inkscape:deskcolor="#d1d1d1"
     inkscape:zoom="7.92"
     inkscape:cx="49.936869"
     inkscape:cy="60.10101"
     inkscape:window-width="1920"
     inkscape:window-height="1003"
     inkscape:window-x="0"
     inkscape:window-y="0"
     inkscape:window-maximized="1"
     inkscape:current-layer="svg1"><inkscape:page
       x="0"
       y="0"
       width="4"
       height="4"
       id="page2"
       margin="0"
       bleed="0" /></sodipodi:namedview><title
     id="title1">linuxmint</title><g
     id="g1"
     transform="matrix(0.12446148,0,0,0.12446148,0.00611712,0.18034119)"><g
       id="g6"
       transform="matrix(2.1455648,0,0,2.1455648,-29.201913,-14.89078)"
       style="fill:#ff6600"><path
         id="path6"
         style="opacity:1;fill:#ff6600;stroke-width:0.04"
         d="m 18.073932,8.5606063 c 0,0 -1.714365,-0.09348 -3.189884,1.3518433 -1.182577,1.1583764 -1.214156,2.7138134 -1.214156,2.7138134 v 6.323232 h 2.747475 l 0.01789,-6.242371 c 0,0 0.02589,-0.42867 0.428677,-0.855209 0.525704,-0.556708 1.210002,-0.533734 1.210002,-0.533734 z"
         sodipodi:nodetypes="csccccscc" /><path
         id="path4"
         style="opacity:1;fill:#ff6600;stroke-width:0.04"
         d="m 24.113528,8.5606063 c 0,0 -1.714365,-0.09348 -3.189884,1.3518433 -1.182577,1.1583764 -1.214156,2.7138134 -1.214156,2.7138134 v 6.323232 h 2.747475 l 0.01789,-6.242371 c 0,0 0.02589,-0.42867 0.428677,-0.855209 0.525704,-0.556708 1.210002,-0.533734 1.210002,-0.533734 z"
         sodipodi:nodetypes="csccccscc" /><path
         id="path5"
         style="opacity:1;fill:#ff6600;stroke-width:0.04"
         d="m 18.029492,8.5606063 c 0,0 1.714365,-0.09348 3.189884,1.3518433 1.182577,1.1583764 1.214156,2.7138134 1.214156,2.7138134 v 6.323232 h -2.747475 l -0.01789,-6.242371 c 0,0 -0.02589,-0.42867 -0.428677,-0.855209 -0.525704,-0.556708 -1.210002,-0.533734 -1.210002,-0.533734 z"
         sodipodi:nodetypes="csccccscc" /><path
         id="rect3"
         style="opacity:1;fill:#ff6600;stroke-width:0.04"
         d="m 24.079997,8.5606063 c 0,0 1.714365,-0.09348 3.189884,1.3518433 1.182577,1.1583764 1.214156,2.7138134 1.214156,2.7138134 v 6.323232 h -2.747475 l -0.01789,-6.242371 c 0,0 -0.02589,-0.42867 -0.428677,-0.855209 -0.525704,-0.556708 -1.210002,-0.533734 -1.210002,-0.533734 z"
         sodipodi:nodetypes="csccccscc" /></g><path
       fill="#fefefe"
       d="m 15.808713,17.330536 c 0.152192,-0.01053 0.316023,-0.0041 0.467198,0.01855 q 0.04352,0.0065 0.08665,0.01504 0.04312,0.0086 0.08578,0.01914 0.04265,0.01053 0.08469,0.02328 0.0421,0.0127 0.08352,0.02735 0.04148,0.01485 0.08211,0.0314 0.0407,0.0168 0.08047,0.03539 0.03985,0.01875 0.07867,0.03922 0.03883,0.02062 0.07664,0.04305 0.03782,0.02242 0.07445,0.04664 0.03672,0.02422 0.07219,0.05024 0.0354,0.02602 0.06953,0.05367 0.03414,0.02773 0.06695,0.05703 0.03273,0.0293 0.06407,0.06015 0.03125,0.03086 0.06102,0.0632 0.02977,0.03242 0.05797,0.06617 0.02812,0.03375 0.05461,0.06883 c 0.291724,0.388055 0.437118,0.905956 0.358835,1.388231 -0.08907,0.548448 -0.42954,0.925174 -0.868533,1.231586 0.196332,0.676186 1.028457,2.786305 1.037989,3.309362 0.0023,0.128909 -0.04265,0.232973 -0.137034,0.31985 -0.272583,0.250708 -1.227758,0.133518 -1.610266,0.130315 -0.528525,-0.0032 -1.494013,0.09258 -1.967148,-0.0025 -0.09828,-0.01977 -0.15094,-0.05407 -0.205003,-0.141175 -0.28524,-0.459774 0.794859,-3.012871 0.979785,-3.61343 -0.04477,-0.0264 -0.08805,-0.05258 -0.130394,-0.08273 -0.389304,-0.277818 -0.681185,-0.728296 -0.756655,-1.202133 -0.07695,-0.482978 0.08462,-0.984941 0.383601,-1.365651 0.327272,-0.416727 0.754,-0.620715 1.268306,-0.690014 z"
       id="path47"
       style="stroke-width:0.0781265" /></g><metadata
     id="metadata8"><rdf:RDF><cc:Work
         rdf:about=""><dc:title>linuxmint</dc:title></cc:Work></rdf:RDF></metadata></svg>
